<?xml version="1.0" standalone="no"?>
<!DOCTYPE svg PUBLIC "-//W3C//DTD SVG 20010904//EN"
 "http://www.w3.org/TR/2001/REC-SVG-20010904/DTD/svg10.dtd">
<svg version="1.0" xmlns="http://www.w3.org/2000/svg"
 width="612.000000pt" height="612.000000pt" viewBox="0 0 612.000000 612.000000"
 preserveAspectRatio="xMidYMid meet">
<metadata>
Created by potrace 1.14, written by Peter Selinger 2001-2017
</metadata>
<g transform="translate(0.000000,612.000000) scale(0.100000,-0.100000)"
fill="#000000" stroke="none">
<path d="M2222 5418 c-9 -9 -12 -192 -12 -760 l0 -748 -749 0 c-653 0 -750 -2
-761 -15 -10 -12 -10 -18 0 -30 11 -13 108 -15 761 -15 l749 0 0 -790 0 -790
-749 0 c-653 0 -750 -2 -761 -15 -10 -12 -10 -18 0 -30 11 -13 108 -15 761
-15 l749 0 0 -749 c0 -791 0 -782 44 -765 15 6 16 73 16 760 l0 754 790 0 790
0 0 -749 c0 -653 2 -750 15 -761 12 -10 18 -10 30 0 13 11 15 108 15 761 l0
749 749 0 c653 0 750 2 761 15 10 12 10 18 0 30 -11 13 -108 15 -761 15 l-749
0 0 790 0 790 754 0 c687 0 754 1 760 16 17 44 26 44 -765 44 l-749 0 0 749
c0 653 -2 750 -15 761 -12 10 -18 10 -30 0 -13 -11 -15 -108 -15 -761 l0 -749
-790 0 -790 0 0 754 c0 678 -2 754 -16 760 -20 8 -18 8 -32 -6z m1628 -2358
l0 -790 -790 0 -790 0 0 790 0 790 790 0 790 0 0 -790z"/>
<path d="M2873 3781 c-264 -72 -468 -278 -534 -541 -28 -111 -23 -300 11 -400
102 -303 357 -501 665 -517 448 -24 806 334 782 782 -10 193 -76 336 -221 481
-96 95 -170 142 -296 184 -95 33 -306 38 -407 11z m304 -117 c235 -48 418
-222 478 -451 20 -75 19 -229 -1 -307 -53 -206 -235 -387 -444 -441 -49 -13
-93 -16 -180 -13 -100 4 -125 9 -195 37 -415 166 -524 692 -210 1006 150 150
349 211 552 169z"/>
<path d="M4500 5395 c-84 -19 -215 -82 -291 -141 -275 -211 -361 -612 -199
-922 126 -242 348 -385 621 -399 484 -25 861 411 763 885 -33 158 -101 280
-219 390 -88 82 -175 134 -280 169 -100 33 -291 41 -395 18z m347 -136 c197
-60 365 -235 417 -436 20 -77 20 -219 1 -302 -49 -205 -234 -391 -445 -446
-89 -23 -270 -16 -353 13 -308 111 -482 446 -391 752 68 230 264 404 498 441
74 11 195 2 273 -22z"/>
<path d="M767 5302 c-43 -47 -34 -59 256 -349 149 -151 273 -278 275 -282 2
-5 -121 -133 -273 -284 -234 -234 -275 -280 -275 -305 0 -16 8 -36 18 -45 42
-39 55 -29 347 263 l280 280 280 -280 c246 -245 284 -280 311 -280 17 0 38 8
47 18 39 42 29 54 -265 349 l-283 283 283 283 c183 183 282 289 282 302 0 35
-28 65 -62 65 -27 0 -65 -35 -310 -281 l-280 -281 -282 281 c-296 296 -310
306 -349 263z"/>
<path d="M2427 5302 c-39 -43 -31 -55 265 -350 l282 -282 -282 -282 c-298
-298 -308 -311 -263 -352 41 -37 60 -23 351 268 l280 280 282 -282 c297 -298
311 -308 351 -264 39 42 29 54 -265 349 l-283 283 280 279 c292 292 306 311
269 352 -41 45 -54 35 -352 -263 l-283 -282 -282 282 c-297 297 -311 307 -350
264z"/>
<path d="M1280 3796 c-217 -46 -415 -198 -514 -396 -62 -124 -80 -211 -74
-363 8 -205 69 -347 208 -488 87 -87 187 -150 297 -186 106 -35 287 -43 398
-18 216 48 429 226 514 429 87 210 79 434 -25 636 -90 177 -247 306 -449 370
-89 28 -261 36 -355 16z m295 -131 c219 -56 394 -231 450 -450 19 -77 19 -221
-1 -298 -60 -231 -248 -408 -481 -453 -141 -27 -256 -10 -390 56 -148 73 -254
195 -310 357 -23 68 -27 93 -27 193 0 98 4 126 26 188 72 200 225 346 423 403
77 22 230 24 310 4z"/>
<path d="M3995 3735 c-14 -13 -25 -32 -25 -43 0 -10 117 -135 282 -300 l282
-283 -282 -282 c-202 -203 -282 -289 -282 -305 0 -34 45 -75 73 -67 12 4 146
130 297 281 151 151 280 274 285 274 6 0 131 -122 279 -271 148 -148 277 -274
287 -280 34 -18 89 21 89 62 0 7 -126 139 -280 294 -154 154 -280 285 -280
290 0 6 124 134 276 286 231 231 277 281 277 305 0 32 -34 64 -66 64 -14 0
-114 -92 -304 -282 l-283 -283 -283 283 c-156 155 -291 282 -300 282 -10 0
-29 -11 -42 -25z"/>
<path d="M1262 2170 c-146 -39 -293 -132 -385 -245 -63 -77 -133 -220 -152
-310 -17 -83 -19 -232 -4 -307 48 -238 224 -453 445 -542 282 -115 610 -46
815 170 150 159 218 343 206 559 -18 323 -240 595 -553 675 -103 27 -270 26
-372 0z m313 -115 c203 -42 385 -202 457 -402 29 -83 36 -264 13 -353 -43
-168 -172 -325 -325 -398 -102 -48 -163 -62 -277 -62 -159 0 -295 55 -413 166
-81 76 -130 152 -167 256 -33 95 -37 260 -9 353 96 317 405 506 721 440z"/>
<path d="M2430 2040 c-46 -46 -39 -55 260 -355 l280 -280 -280 -280 c-295
-295 -305 -309 -262 -348 46 -42 58 -34 349 255 150 150 276 275 279 277 2 3
130 -120 282 -272 242 -242 282 -277 308 -277 17 0 38 8 47 18 39 42 29 55
-263 347 l-280 280 280 281 c298 299 305 309 260 354 -11 11 -30 20 -42 20
-16 0 -103 -80 -305 -282 l-283 -283 -283 283 c-199 199 -289 282 -305 282
-12 0 -31 -9 -42 -20z"/>
<path d="M3992 2040 c-12 -12 -22 -31 -22 -42 0 -16 86 -109 282 -305 l283
-283 -283 -283 c-180 -180 -282 -290 -282 -303 0 -35 28 -64 63 -64 29 0 62
30 312 280 l280 280 281 -281 c269 -268 282 -280 315 -277 43 4 67 44 48 80
-7 13 -120 131 -252 263 -133 132 -254 255 -271 273 l-29 33 278 279 c294 294
301 304 260 350 -41 45 -53 36 -350 -260 l-281 -281 -281 281 c-297 297 -305
303 -351 260z"/>
</g>
</svg>
